<svg width="35" height="35" viewBox="0 0 35 35" fill="none" xmlns="http://www.w3.org/2000/svg">
<g clip-path="url(#clip0_8_49)">
<path d="M34.4542 27.7429H13.1939C11.7811 27.7429 10.7806 27.3388 10.2203 26.5415C9.37127 25.3337 9.93373 23.7283 9.95834 23.6608L9.99771 23.5749L11.806 20.4055L12.7542 20.9467L10.9733 24.0679C10.9107 24.2714 10.6458 25.2544 11.1161 25.918C11.4609 26.4045 12.1601 26.6517 13.1939 26.6517H34.4542V27.7429Z" fill="white"/>
<path d="M13.4829 34.6478C11.702 34.6478 10.2534 33.1849 10.2534 31.3868C10.2534 29.5889 11.702 28.1263 13.4829 28.1263C15.2652 28.1263 16.7141 29.5889 16.7141 31.3868C16.7141 33.1849 15.2646 34.6478 13.4829 34.6478ZM13.4837 29.2179C12.3039 29.2179 11.3449 30.191 11.3449 31.3868C11.3449 32.5828 12.3039 33.5562 13.4827 33.5562C14.6625 33.5562 15.6223 32.5828 15.6223 31.3868C15.6226 30.191 14.6631 29.2179 13.4837 29.2179Z" fill="white"/>
<path d="M30.1139 34.6478C28.333 34.6478 26.8841 33.1849 26.8841 31.3868C26.8841 29.5889 28.333 28.1263 30.1139 28.1263C31.8962 28.1263 33.3449 29.5889 33.3449 31.3868C33.3449 33.1849 31.8954 34.6478 30.1139 34.6478ZM30.115 29.2179C28.9351 29.2179 27.9759 30.191 27.9759 31.3868C27.9759 32.5828 28.9351 33.5562 30.1139 33.5562C31.2938 33.5562 32.2533 32.5828 32.2533 31.3868C32.2533 30.191 31.2941 29.2179 30.115 29.2179Z" fill="white"/>
<path d="M35 21.1001H7.7268L4.67578 2.02807L0 1.43499L0.137266 0.352173L5.62461 1.04807L6.53215 6.72163H35V21.1001ZM8.65758 20.0085H33.9084V7.81319H6.70687L8.65758 20.0085Z" fill="white"/>
<path d="M12.1157 10.022H11.0242V17.6802H12.1157V10.022Z" fill="white"/>
<path d="M16.6986 10.022H15.607V17.6802H16.6986V10.022Z" fill="white"/>
<path d="M21.2808 10.022H20.1893V17.6802H21.2808V10.022Z" fill="white"/>
<path d="M25.8637 10.022H24.7721V17.6802H25.8637V10.022Z" fill="white"/>
<path d="M30.4462 10.022H29.3546V17.6802H30.4462V10.022Z" fill="white"/>
</g>
<defs>
<clipPath id="clip0_8_49">
<rect width="35" height="35" fill="white"/>
</clipPath>
</defs>
</svg>
